<?xml version="1.0" encoding="utf-8"?>
<!-- Generator: Adobe Illustrator 21.1.0, SVG Export Plug-In . SVG Version: 6.00 Build 0)  -->
<!DOCTYPE svg PUBLIC "-//W3C//DTD SVG 1.1//EN" "http://www.w3.org/Graphics/SVG/1.1/DTD/svg11.dtd">
<svg version="1.1" id="Layer_1" xmlns="http://www.w3.org/2000/svg" xmlns:xlink="http://www.w3.org/1999/xlink" x="0px" y="0px"
	 viewBox="0 0 50.4 50.4" style="enable-background:new 0 0 50.4 50.4;" xml:space="preserve">
<style type="text/css">
	.st0{fill:#333333;}
	.st1{enable-background:new    ;}
</style>
<g>
	<path class="st0" d="M28.4,23c0.3-0.1,0.6-0.5,0.7-0.6l0.2-0.3l1.5-3.3c0,0,0,0,0,0c0,0,0,0,0,0l0.8-1.7c0.1-0.3,0.5-0.4,0.8-0.3
		c0.3,0.1,0.4,0.5,0.3,0.8l-0.6,1.3l6.7,3.9l-2.4-10c0,0-1.1-3.6-4.3-3c-1.4,0.2-2.5,1.2-3.2,2.6l-2.9,7.9l-6.4,2.3
		c-0.6,0.2-1.1,1-1.1,1.8c0.1,1.1,1.2,1.9,2.5,1.6L28.4,23z"/>
	<rect x="38.8" y="4.9" transform="matrix(0.9721 -0.2346 0.2346 0.9721 -0.3031 9.8273)" class="st0" width="4.7" height="2.5"/>
	<path class="st0" d="M8.7,39.4c-0.2,0-0.3,0-0.5-0.1c-0.4-0.3-0.5-0.8-0.2-1.1l8.8-12.5c0.3-0.4,0.8-0.5,1.1-0.2s0.5,0.8,0.2,1.1
		L9.4,39.1C9.3,39.3,9,39.4,8.7,39.4L8.7,39.4z"/>
	<path class="st0" d="M8,48.5c-0.4,0-0.7-0.3-0.7-0.7c0-0.2,0.1-0.4,0.2-0.5C7.6,47.1,7.8,47,8,47l0,0c0.4,0,0.7,0.3,0.8,0.7
		C8.7,48.1,8.4,48.4,8,48.5C8,48.5,8,48.5,8,48.5L8,48.5z M7.9,46.1c-0.4,0-0.7-0.3-0.7-0.7c0-0.2,0-0.4,0.2-0.5
		c0.1-0.1,0.3-0.2,0.5-0.2l0,0c0.4,0,0.7,0.3,0.8,0.7C8.6,45.7,8.3,46,7.9,46.1C7.9,46.1,7.9,46.1,7.9,46.1L7.9,46.1z M7.8,43.7
		L7.8,43.7C7.4,43.7,7,43.4,7,43c0-0.4,0.3-0.7,0.7-0.8c0,0,0,0,0,0c0.4,0,0.7,0.3,0.8,0.7c0,0.2,0,0.4-0.2,0.5
		C8.2,43.6,8,43.7,7.8,43.7C7.8,43.7,7.8,43.7,7.8,43.7L7.8,43.7z M7.6,41.3c-0.4,0-0.7-0.3-0.7-0.7c0-0.2,0.1-0.4,0.2-0.5
		c0.1-0.1,0.3-0.2,0.5-0.2l0,0c0.4,0,0.7,0.3,0.8,0.7C8.4,40.9,8.1,41.2,7.6,41.3C7.7,41.3,7.6,41.3,7.6,41.3L7.6,41.3z"/>
	<path class="st0" d="M48.7,27.7c-0.3-2.2-1.8-4.4-2.7-5.5l1.4-0.3c1.2-0.3,2-1.5,1.7-2.8l-2.3-9.4c-0.3-1.2-1.5-2-2.8-1.7L39.6,9
		c-1.2,0.3-2,1.5-1.7,2.8l2.3,9.4c0.3,1.2,1.5,2,2.8,1.7l1.5-0.4c0.6,0.7,2.5,3.1,2.8,5.4c0.3,2,0,3.6-1,4.7
		c-1.2,1.3-3.2,1.7-4.6,1.8l-2.4-10.2l-7.6-4.4l-1.3,2.7l1,4.8L24,34.2c-0.5,0.5-0.7,1.4-0.7,2.2l-0.1,10.8c0,0.3,0,0.5,0,0.6
		c0,0.7,0.4,1.3,0.9,1.9c0.6,0.5,1.2,0.7,2,0.7c1.4-0.1,2.3-0.9,2.5-2.2l0.2-11.3l6.1-5l1.3,5.5c0.2,0.7,0.6,1.2,0.6,1.2L43.5,49
		c0.6,1,1.5,1.5,2.6,1.4c0.8-0.1,1.4-0.4,1.9-1c0.5-0.6,0.7-1.3,0.6-2c0-0.5-0.1-0.8-0.3-1.2l-6.2-9.7L42,35.8
		c1.6-0.2,3.8-0.7,5.3-2.3C48.6,32.1,49.1,30.1,48.7,27.7z"/>
	<path class="st0" d="M31.5,5.3L31.5,5.3L31.5,5.3l0-1.3c-0.1-2.2-1.9-4-4.2-4c-2.2,0-4,1.8-4.1,4h-4.4v1.3L31.5,5.3z"/>
	<path class="st0" d="M3.1,47.6c-0.1,0-0.3,0-0.4-0.1c-0.3-0.2-0.4-0.7-0.2-1c0.2-0.3,0.7-0.4,1-0.2c0.3,0.2,0.4,0.7,0.2,1
		C3.5,47.5,3.3,47.6,3.1,47.6L3.1,47.6z M4.4,45.7c-0.2,0-0.3,0-0.4-0.1c-0.2-0.1-0.3-0.3-0.3-0.5c0-0.2,0-0.4,0.1-0.5
		c0.2-0.3,0.7-0.4,1-0.2c0.2,0.1,0.3,0.3,0.3,0.5c0,0.2,0,0.4-0.1,0.5C4.9,45.5,4.7,45.7,4.4,45.7L4.4,45.7z M5.8,43.7
		c-0.1,0-0.3,0-0.4-0.1c-0.3-0.2-0.4-0.7-0.2-1c0.2-0.3,0.7-0.4,1-0.2c0.2,0.1,0.3,0.3,0.3,0.5c0,0.2,0,0.4-0.1,0.5
		C6.2,43.5,6,43.7,5.8,43.7L5.8,43.7z"/>
	<path class="st0" d="M0.7,43c-0.3,0-0.6-0.2-0.7-0.5c-0.1-0.4,0.1-0.8,0.5-0.9c0.4-0.1,0.8,0.1,0.9,0.5c0.1,0.4-0.1,0.8-0.5,0.9
		C0.8,43,0.8,43,0.7,43L0.7,43z M3.1,42.4c-0.3,0-0.6-0.2-0.7-0.5c-0.1-0.4,0.1-0.8,0.5-0.9c0.4-0.1,0.8,0.1,0.9,0.5
		c0.1,0.4-0.1,0.8-0.5,0.9C3.2,42.4,3.1,42.4,3.1,42.4L3.1,42.4z M5.4,41.7c-0.3,0-0.6-0.2-0.7-0.5c-0.1-0.4,0.1-0.8,0.5-0.9
		c0.4-0.1,0.8,0.1,0.9,0.5c0.1,0.4-0.1,0.8-0.5,0.9C5.5,41.7,5.4,41.7,5.4,41.7L5.4,41.7z"/>
	<path class="st0" d="M28.1,6.4L28.1,6.4l-7.7,0l0.1,0.7c0.4,3.7,3.5,6.6,7,6.6h0.6v-3.4c1.9-0.3,3.3-1.9,3.4-3.8h0v0c0,0,0,0,0,0
		H28.1z M26.8,12.3c-2.4-0.3-4.5-2.2-5-4.7h5V12.3z"/>
</g>
<text transform="matrix(1 0 0 1 0 65.4)" style="font-family:'HelveticaNeue-Bold'; font-size:5px;">Created by Luis Prado</text>
<text transform="matrix(1 0 0 1 0 70.4)" style="font-family:'HelveticaNeue-Bold'; font-size:5px;">from the Noun Project</text>
</svg>
